<svg xmlns="http://www.w3.org/2000/svg" xmlns:xlink="http://www.w3.org/1999/xlink" version="1.1" x="0px" y="0px" viewBox="0 0 500 462.502" enable-background="new 0 0 500 462.502" xml:space="preserve" style="fill: rgb(0, 0, 0);" role="img">
<g id="__id4_smha55d9qo">
	<path fill-rule="evenodd" clip-rule="evenodd" d="M271.557,196.235c18.126,44.332,90.772,35.391,128.034,20.001   c50.144-20.899,52.933-57.746,100.409-76.312c-52.582-23.12-103.841-36.767-150.744-17.552   C299.181,142.027,268.326,165.938,271.557,196.235z" style="fill: rgb(87, 154, 98);"></path>
	<path fill-rule="evenodd" clip-rule="evenodd" d="M217.612,233.809c13.826-0.457,19.077,49.395,27.396,78.729   c27.696,95.076-32.299,112.899-52.638,149.964c-14.067-38.462-49.233-59.318-43.453-115.417   C152.718,292.724,173.293,251.903,217.612,233.809z" style="fill: rgb(87, 154, 98);"></path>
	<path fill-rule="evenodd" clip-rule="evenodd" d="M227.11,186.184c27.861-4.648,2.229-60.078-25.874-115.662   C168.028,5.238,111.789,23.3,67.361,0c16.492,39.859-5.312,80.6,27.651,117.643C139.812,166.661,222.563,210.376,227.11,186.184z" style="fill: rgb(87, 154, 98);"></path>
	<path fill-rule="evenodd" clip-rule="evenodd" d="M252.533,157.821c3.086-9.86,12.638-12.437,20.585-19.507   c21.537-25.085,23.273-55.079,7.746-89.864c-3.91-8.373-11.561-16.979-17.956-25.489c-16.827,19.709-19.837,38.972-19.019,57.204   c1.124,23.895-8.144,21.483,3.055,55.36C249.005,143.185,254.217,150.394,252.533,157.821z" style="fill: rgb(87, 154, 98);"></path>
	<path fill-rule="evenodd" clip-rule="evenodd" d="M185.804,212.586c-8.008,18.971-9.1,37.724-74.103,55.26   C58.625,274.789,36.393,247.143,0,236.864c32.939-16.25,45.416-47.509,100.702-49.304   C169.386,182.141,169.912,205.388,185.804,212.586z" style="fill: rgb(87, 154, 98);"></path>
	<path fill-rule="evenodd" clip-rule="evenodd" d="M256.507,240.237c14.551-2.263,26.259-9.122,60.163,22.344   c22.216,27.64,12.67,51.53,18.721,76.982c-21.187-13.159-45.305-8.292-64.807-39.529   C242.691,262.029,257.691,252.243,256.507,240.237z" style="fill: rgb(87, 154, 98);"></path>
</g>
</svg>