<svg width="24" height="29" viewBox="0 0 24 29" fill="none" xmlns="http://www.w3.org/2000/svg">
<path d="M22.9837 10.105C22.8148 10.233 19.8333 11.8745 19.8333 15.5242C19.8333 19.7458 23.6272 21.2393 23.7408 21.2763C23.7233 21.3673 23.138 23.3216 21.7405 25.313C20.4943 27.0653 19.1928 28.8148 17.2128 28.8148C15.2329 28.8148 14.7234 27.6911 12.4377 27.6911C10.2103 27.6911 9.41837 28.8518 7.60733 28.8518C5.79628 28.8518 4.53263 27.2303 3.07972 25.239C1.39679 22.9006 0.0370483 19.2679 0.0370483 15.8201C0.0370483 10.2899 3.71737 7.35702 7.33945 7.35702C9.26405 7.35702 10.8684 8.59163 12.0767 8.59163C13.2268 8.59163 15.0204 7.28306 17.2099 7.28306C18.0398 7.28306 21.0213 7.35702 22.9837 10.105ZM16.1705 4.94185C17.076 3.89214 17.7166 2.43564 17.7166 0.979139C17.7166 0.777163 17.6991 0.572343 17.6612 0.407349C16.1879 0.461398 14.4351 1.36602 13.3782 2.56365C12.5484 3.48535 11.7739 4.94185 11.7739 6.41826C11.7739 6.64015 11.8117 6.86204 11.8292 6.93316C11.9224 6.95022 12.0738 6.97014 12.2252 6.97014C13.5471 6.97014 15.2096 6.10534 16.1705 4.94185Z" fill="white"/>
</svg>
