<svg width="30" height="30" viewBox="0 0 30 30" fill="none" xmlns="http://www.w3.org/2000/svg">
<path fill-rule="evenodd" clip-rule="evenodd" d="M29.4 15.3413C29.4 14.2776 29.3045 13.2549 29.1273 12.2731H15V18.0753H23.0727C22.725 19.9503 21.6682 21.539 20.0795 22.6026V26.3663H24.9273C27.7636 23.7549 29.4 19.9094 29.4 15.3413Z" fill="#4285F4"/>
<path fill-rule="evenodd" clip-rule="evenodd" d="M15.0001 29.9997C19.0501 29.9997 22.4455 28.6565 24.9273 26.3656L20.0796 22.602C18.7364 23.502 17.0182 24.0338 15.0001 24.0338C11.0932 24.0338 7.78641 21.3952 6.60687 17.8497H1.5955V21.7361C4.06369 26.6384 9.13641 29.9997 15.0001 29.9997Z" fill="#34A853"/>
<path fill-rule="evenodd" clip-rule="evenodd" d="M6.60682 17.8502C6.30682 16.9502 6.13636 15.9888 6.13636 15.0002C6.13636 14.0115 6.30682 13.0502 6.60682 12.1502V8.26379H1.59545C0.579545 10.2888 0 12.5797 0 15.0002C0 17.4206 0.579545 19.7115 1.59545 21.7365L6.60682 17.8502Z" fill="#FBBC05"/>
<path fill-rule="evenodd" clip-rule="evenodd" d="M15.0001 5.96591C17.2023 5.96591 19.1796 6.72273 20.7341 8.20909L25.0364 3.90682C22.4387 1.48636 19.0432 0 15.0001 0C9.13641 0 4.06369 3.36136 1.5955 8.26364L6.60687 12.15C7.78641 8.60454 11.0932 5.96591 15.0001 5.96591Z" fill="#EA4335"/>
</svg>
