<svg width="35" height="31" viewBox="0 0 35 31" fill="none" xmlns="http://www.w3.org/2000/svg">
<g clip-path="url(#clip0_672_1626)">
<path d="M17.4071 1.0994C8.1077 1.0994 0.567245 6.64802 0.567245 13.4967C0.567245 17.8958 3.69039 21.7582 8.38061 23.9627L6.79386 29.4827C6.73313 29.6522 6.7835 29.8316 6.9153 29.9538C7.00604 30.039 7.12715 30.0859 7.2586 30.0859C7.36004 30.0859 7.46078 30.0483 7.55187 29.9824L14.3747 25.6865C15.3656 25.8184 16.3765 25.8936 17.4071 25.8936C26.7064 25.8936 34.2476 20.3453 34.2476 13.4967C34.2476 6.64802 26.7064 1.0994 17.4071 1.0994" fill="black"/>
</g>
<defs>
<clipPath id="clip0_672_1626">
<rect width="34.3704" height="29.6296" fill="white" transform="translate(0.222229 0.777832)"/>
</clipPath>
</defs>
</svg>
